<svg width="40" height="40" viewBox="0 0 40 40" fill="none" xmlns="http://www.w3.org/2000/svg">
<path fill-rule="evenodd" clip-rule="evenodd" d="M14.5447 20.0781H25.4553C26.5335 20.0781 27.4619 19.7083 28.1836 18.9908C28.9053 18.2736 29.2197 17.4084 29.1074 16.4481L27.6486 3.94928C27.3853 1.69495 25.2844 0 22.753 0H17.247C14.7156 0 12.6148 1.69495 12.3517 3.94928L10.8926 16.4481C10.7803 17.4084 11.0947 18.2736 11.8167 18.9908C12.5382 19.7083 13.4665 20.0781 14.5447 20.0781Z" fill="white"/>
<path fill-rule="evenodd" clip-rule="evenodd" d="M35.4688 18.2809H32.6562C32.009 18.2809 31.4844 18.8055 31.4844 19.4528V22.4219H8.51562V19.4528C8.51562 18.8055 7.99103 18.2809 7.34375 18.2809H4.53125C3.88397 18.2809 3.35938 18.8055 3.35938 19.4528C3.35938 20.0998 3.88397 20.6247 4.53125 20.6247H6.17188V24.8047C6.17188 24.8828 6.17981 24.9588 6.19446 25.0327C6.18011 25.1501 6.17188 25.2695 6.17188 25.3906C6.17188 27.0233 7.50793 28.3594 9.14062 28.3594H18.8281V33.8275H11.7972C9.98779 33.8275 8.51562 35.2997 8.51562 37.1091V38.8275C8.51562 39.4748 9.04053 39.9994 9.6875 39.9994C10.3348 39.9994 10.8594 39.4748 10.8594 38.8275V37.1091C10.8594 36.5921 11.2802 36.1713 11.7972 36.1713H18.8281V38.8281C18.8281 39.4754 19.3527 40 20 40C20.6473 40 21.1719 39.4754 21.1719 38.8281V36.1713H28.2028C28.7201 36.1713 29.1406 36.5921 29.1406 37.1091V38.8281C29.1406 39.4754 29.6652 40 30.3125 40C30.9598 40 31.4844 39.4754 31.4844 38.8281V37.1091C31.4844 35.2997 30.0122 33.8275 28.2028 33.8275H21.1719V28.3594H30.8594C32.4924 28.3594 33.8281 27.0233 33.8281 25.3906C33.8281 25.2695 33.8199 25.1501 33.8055 25.0324C33.8202 24.9588 33.8281 24.8828 33.8281 24.8047V20.6247H35.4688C36.116 20.6247 36.6406 20.0998 36.6406 19.4528C36.6406 18.8055 36.116 18.2809 35.4688 18.2809Z" fill="white"/>
</svg>
