<svg width="40" height="40" viewBox="0 0 40 40" fill="none" xmlns="http://www.w3.org/2000/svg">
<g clip-path="url(#clip0)">
<path d="M36.3181 2.5H18.7445C16.7108 2.5 15.0626 4.14856 15.0626 6.18195V14.8383C15.9915 15.3 16.9952 15.7993 17.9321 16.265L19.3655 13.3969C20.2335 11.6626 22.3492 10.9579 24.0829 11.8243C25.8203 12.6938 26.5244 14.8038 25.6546 16.5414L23.0994 21.6531C23.1671 22.3297 23.107 23.0118 22.9163 23.6719H24.6033L20.1538 35.907C19.8898 36.6327 20.4001 37.4795 21.2555 37.4795C21.7337 37.4795 22.1835 37.1844 22.3563 36.7078L27.0969 23.6719H27.9181L32.7069 36.7117C32.8812 37.186 33.3298 37.4795 33.8077 37.4795C34.6069 37.4795 35.1929 36.6812 34.9069 35.9039L30.4147 23.6719H36.3181C38.3514 23.6719 40 22.0233 40 19.9899V6.18195C40 4.14856 38.3514 2.5 36.3181 2.5V2.5ZM33.8071 18.6514H28.5492C27.9022 18.6514 27.3773 18.1265 27.3773 17.4796C27.3773 16.832 27.9022 16.3077 28.5492 16.3077H33.8071C34.4547 16.3077 34.9789 16.832 34.9789 17.4796C34.9789 18.1265 34.4547 18.6514 33.8071 18.6514ZM33.8071 14.2578H28.5492C27.9022 14.2578 27.3773 13.7335 27.3773 13.0859C27.3773 12.439 27.9022 11.9141 28.5492 11.9141H33.8071C34.4547 11.9141 34.9789 12.439 34.9789 13.0859C34.9789 13.7335 34.4547 14.2578 33.8071 14.2578ZM33.8071 9.86481H21.2555C20.6079 9.86481 20.0836 9.3399 20.0836 8.69293C20.0836 8.04596 20.6079 7.52106 21.2555 7.52106H33.8071C34.4547 7.52106 34.9789 8.04596 34.9789 8.69293C34.9789 9.3399 34.4547 9.86481 33.8071 9.86481Z" fill="white"/>
<path d="M20.6189 23.1693C20.8307 22.5488 20.8292 21.9006 20.6503 21.3092L23.5587 15.4932C23.848 14.9142 23.6136 14.2102 23.0347 13.9209C22.4561 13.6313 21.752 13.866 21.4624 14.4449L18.9819 19.4052C17.4994 18.667 15.2469 17.547 13.4323 16.6446C11.7441 15.8051 10.5392 15.0522 8.48358 15.0522H7.44812C9.04877 15.0522 10.4773 14.3155 11.4124 13.1625C12.1259 12.2852 12.5525 11.167 12.5525 9.94843C12.5525 7.12891 10.2673 4.84375 7.44751 4.84375C4.62891 4.84375 2.34375 7.12891 2.34375 9.94843C2.34375 11.3025 2.87109 12.533 3.73138 13.446C4.66156 14.4351 5.98267 15.0522 7.4472 15.0525C5.4837 15.0525 3.56415 15.8481 2.18323 17.2327C0.775452 18.6368 0 20.5075 0 22.5003V26.2659C0 27.887 1.05255 29.2664 2.51038 29.7571V36.3074C2.51038 36.9547 3.03497 37.4792 3.68225 37.4792H11.2134C11.8607 37.4792 12.3853 36.9547 12.3853 36.3074V23.1406C13.4964 23.696 14.9561 24.4257 16.1371 25.0165C16.965 25.4303 17.9324 25.4675 18.7952 25.1166C19.6555 24.7626 20.3186 24.0579 20.6143 23.183C20.6158 23.1784 20.6174 23.1738 20.6189 23.1693Z" fill="white"/>
</g>
<defs>
<clipPath id="clip0">
<rect width="40" height="40" fill="white"/>
</clipPath>
</defs>
</svg>
