<svg width="25" height="25" viewBox="0 0 25 25" fill="none" xmlns="http://www.w3.org/2000/svg">
<path d="M14.5157 24.8373C14.4116 24.8543 14.3071 24.87 14.2021 24.8843C14.3071 24.87 14.4116 24.8543 14.5157 24.8373Z" fill="black"/>
<path d="M14.7656 24.7946C14.7158 24.8038 14.666 24.8122 14.6162 24.8207C14.666 24.8122 14.7158 24.8038 14.7656 24.7946Z" fill="black"/>
<path d="M13.9227 24.9189C13.8008 24.9327 13.6782 24.9449 13.5552 24.9552C13.6782 24.9449 13.8008 24.9327 13.9227 24.9189Z" fill="black"/>
<path d="M14.1631 24.8896C14.1045 24.8974 14.0456 24.9047 13.9868 24.9115C14.0456 24.9047 14.1045 24.8974 14.1631 24.8896Z" fill="black"/>
<path d="M15.1061 24.7271C15.0622 24.7364 15.0182 24.7457 14.9741 24.7547C15.0182 24.7457 15.0622 24.7364 15.1061 24.7271Z" fill="black"/>
<path d="M15.9502 24.5173C15.9147 24.5274 15.8792 24.5369 15.8438 24.5468C15.8792 24.5369 15.9147 24.5274 15.9502 24.5173Z" fill="black"/>
<path d="M15.6951 24.5871C15.6565 24.5972 15.6178 24.6075 15.5791 24.6172C15.6178 24.6075 15.6565 24.5974 15.6951 24.5871Z" fill="black"/>
<path d="M15.361 24.6706C15.3202 24.6801 15.279 24.6891 15.2378 24.6983C15.279 24.6891 15.3202 24.6801 15.361 24.6706Z" fill="black"/>
<path d="M13.5511 24.9556C13.4853 24.9611 13.4195 24.9661 13.3535 24.9704C13.4195 24.9661 13.4853 24.9611 13.5511 24.9556Z" fill="black"/>
<path d="M25 12.5C25 5.5975 19.4025 0 12.5 0C5.5975 0 0 5.5975 0 12.5C0 19.4025 5.5975 25 12.5 25C12.5734 25 12.6465 24.9985 12.7197 24.9971V15.2664H10.0342V12.1367H12.7197V9.83353C12.7197 7.16248 14.3503 5.70869 16.733 5.70869C17.874 5.70869 18.8547 5.79376 19.1406 5.83172V8.62331H17.4976C16.2014 8.62331 15.9504 9.23939 15.9504 10.1433V12.1367H19.0498L18.6459 15.2664H15.9504V24.5171C21.1752 23.0192 25 18.2056 25 12.5Z" fill="white"/>
<path d="M13.3259 24.9722C13.1958 24.9806 13.0651 24.9872 12.9341 24.9916C13.0651 24.9872 13.1958 24.9806 13.3259 24.9722Z" fill="black"/>
<path d="M12.9277 24.992C12.8587 24.9943 12.7895 24.996 12.7202 24.9972C12.7895 24.996 12.8587 24.9943 12.9277 24.992Z" fill="black"/>
</svg>
