<svg width="25" height="25" viewBox="0 0 25 25" fill="none" xmlns="http://www.w3.org/2000/svg">
<g clip-path="url(#clip0)">
<path d="M12.5 0.520813C5.59375 0.520813 0 6.02081 0 12.8041C0 18.2323 3.58125 22.8354 8.54688 24.4583C9.17188 24.5739 9.40104 24.1937 9.40104 23.8677C9.40104 23.576 9.39062 22.8031 9.38542 21.7792C5.90833 22.5198 5.175 20.1312 5.175 20.1312C4.60625 18.7135 3.78437 18.3344 3.78437 18.3344C2.65208 17.5729 3.87187 17.5885 3.87187 17.5885C5.12708 17.6739 5.78646 18.8542 5.78646 18.8542C6.90104 20.7323 8.7125 20.1896 9.42708 19.876C9.53958 19.0812 9.86146 18.5406 10.2188 18.2333C7.44271 17.926 4.525 16.8698 4.525 12.1635C4.525 10.8229 5.00937 9.72706 5.81146 8.86769C5.67083 8.55727 5.24896 7.30831 5.92083 5.61665C5.92083 5.61665 6.96771 5.28748 9.35833 6.87602C10.3583 6.60311 11.4208 6.46769 12.4833 6.46144C13.5458 6.46769 14.6083 6.60311 15.6083 6.87602C17.9833 5.28748 19.0302 5.61665 19.0302 5.61665C19.7021 7.30831 19.2802 8.55727 19.1552 8.86769C19.9521 9.72706 20.4365 10.8229 20.4365 12.1635C20.4365 16.8823 17.5146 17.9208 14.7333 18.2229C15.1708 18.5917 15.5771 19.3448 15.5771 20.4958C15.5771 22.1396 15.5615 23.4604 15.5615 23.8594C15.5615 24.1812 15.7802 24.5656 16.4208 24.4427C21.4219 22.8302 25 18.2239 25 12.8041C25 6.02081 19.4031 0.520813 12.5 0.520813Z" fill="white"/>
</g>
<defs>
<clipPath id="clip0">
<rect width="25" height="25" fill="white"/>
</clipPath>
</defs>
</svg>
