<svg width="15" height="15" viewBox="0 0 15 15" fill="none" xmlns="http://www.w3.org/2000/svg">
<path d="M7.5 0C4.39819 0 1.875 2.52349 1.875 5.625C1.875 9.77479 7.06482 14.707 7.28578 14.9152C7.34619 14.9716 7.4231 15 7.5 15C7.5769 15 7.65381 14.9716 7.71425 14.9152C7.93518 14.707 13.125 9.77479 13.125 5.625C13.125 2.52349 10.6018 0 7.5 0ZM7.5 8.75001C5.77696 8.75001 4.37499 7.34804 4.37499 5.625C4.37499 3.90196 5.77699 2.49999 7.5 2.49999C9.22301 2.49999 10.625 3.90199 10.625 5.625C10.625 7.34801 9.22304 8.75001 7.5 8.75001Z" fill="#B7B7B7"/>
</svg>
