<svg width="40" height="40" viewBox="0 0 40 40" fill="none" xmlns="http://www.w3.org/2000/svg">
<g clip-path="url(#clip0)">
<path d="M19.9914 28.3046C18.0797 28.3046 16.5244 29.8548 16.5244 31.7594C16.5244 33.6645 18.0797 35.2154 19.9914 35.2154C21.9039 35.2154 23.4592 33.6645 23.4592 31.7594C23.4592 29.8548 21.9035 28.3046 19.9914 28.3046Z" fill="white"/>
<path d="M28.4506 23.5974C26.1934 21.3414 23.1888 20.0984 19.9914 20.0984C16.8064 20.0984 13.81 21.3332 11.5534 23.575C10.642 24.482 10.6404 25.9597 11.5496 26.8683C11.9913 27.3106 12.5793 27.5535 13.2052 27.5535C13.8283 27.5535 14.4141 27.3118 14.8551 26.8733C16.2284 25.5086 18.0525 24.7568 19.9914 24.7568C21.9376 24.7568 23.7667 25.5133 25.141 26.8862C25.5826 27.3273 26.1704 27.5708 26.7956 27.5708C27.4193 27.5708 28.0049 27.3292 28.4462 26.8907C29.3589 25.9836 29.3605 24.5066 28.4506 23.5974Z" fill="white"/>
<path d="M39.3172 12.7667C34.1567 7.61885 27.2928 4.78461 19.9914 4.78461C12.6998 4.78461 5.84294 7.61222 0.683954 12.7479C-0.227459 13.6549 -0.22809 15.1326 0.682692 16.0411C1.12404 16.4812 1.71115 16.7232 2.33579 16.7232C2.96012 16.7232 3.54659 16.4822 3.98794 16.0424C8.26423 11.786 13.9475 9.44136 19.9914 9.44136C26.0442 9.44136 31.7332 11.7907 36.0104 16.0585C36.4518 16.4989 37.0398 16.7418 37.6641 16.7418C38.2881 16.7418 38.8746 16.4995 39.3157 16.0604C40.2274 15.1527 40.2283 13.6744 39.3172 12.7667Z" fill="white"/>
<path d="M33.7462 18.3178C30.0728 14.6529 25.188 12.6348 19.9914 12.6348C14.8044 12.6348 9.92679 14.6466 6.25654 18.2986C5.81455 18.738 5.57132 19.3226 5.57037 19.9451C5.57037 20.5669 5.81266 21.1521 6.25401 21.5922C6.69536 22.0326 7.28278 22.2755 7.90742 22.2755C8.53112 22.2755 9.11759 22.0332 9.55958 21.5947C12.3478 18.8207 16.0527 17.2925 19.9914 17.2925C23.9384 17.2925 27.6484 18.8261 30.4384 21.6095C30.8804 22.0506 31.4675 22.2935 32.0925 22.2935C32.7165 22.2935 33.3033 22.0512 33.744 21.612C34.1854 21.1726 34.4292 20.588 34.4295 19.9656C34.4302 19.3431 34.1873 18.7585 33.7462 18.3178Z" fill="white"/>
</g>
<defs>
<clipPath id="clip0">
<rect width="40" height="40" fill="white"/>
</clipPath>
</defs>
</svg>
