<svg width="124" height="124" viewBox="0 0 124 124" fill="none" xmlns="http://www.w3.org/2000/svg">
<circle cx="62" cy="62" r="61.5" stroke="#B7B7B7"/>
<path d="M95.3125 44.9219H43.75C42.8176 44.9219 41.9234 45.2923 41.2641 45.9516C40.6048 46.6109 40.2344 47.5051 40.2344 48.4375V81.25C40.2344 82.1824 40.6048 83.0766 41.2641 83.7359C41.9234 84.3952 42.8176 84.7656 43.75 84.7656H61.9223L60.3906 91.7969H57.8125C56.8801 91.7969 55.9859 92.1673 55.3266 92.8266C54.6673 93.4859 54.2969 94.3801 54.2969 95.3125V97.6562C54.2969 97.9671 54.4203 98.2651 54.6401 98.4849C54.8599 98.7047 55.1579 98.8281 55.4688 98.8281H83.5938C83.9046 98.8281 84.2026 98.7047 84.4224 98.4849C84.6422 98.2651 84.7656 97.9671 84.7656 97.6562V95.3125C84.7656 94.3801 84.3952 93.4859 83.7359 92.8266C83.0766 92.1673 82.1824 91.7969 81.25 91.7969H78.6719L77.1332 84.7656H95.3125C96.2449 84.7656 97.1391 84.3952 97.7984 83.7359C98.4577 83.0766 98.8281 82.1824 98.8281 81.25V48.4375C98.8281 47.5051 98.4577 46.6109 97.7984 45.9516C97.1391 45.2923 96.2449 44.9219 95.3125 44.9219ZM82.4219 95.3125V96.4844H56.6406V95.3125C56.6406 95.0017 56.7641 94.7036 56.9839 94.4839C57.2036 94.2641 57.5017 94.1406 57.8125 94.1406H81.25C81.5608 94.1406 81.8589 94.2641 82.0786 94.4839C82.2984 94.7036 82.4219 95.0017 82.4219 95.3125ZM76.2789 91.7969H62.7836L64.3223 84.7656H74.7402L76.2789 91.7969ZM95.3125 82.4219H43.75C43.4392 82.4219 43.1411 82.2984 42.9214 82.0786C42.7016 81.8589 42.5781 81.5608 42.5781 81.25V77.7344H96.4844V81.25C96.4844 81.5608 96.3609 81.8589 96.1411 82.0786C95.9214 82.2984 95.6233 82.4219 95.3125 82.4219Z" fill="#DFDFDF"/>
<path d="M81.25 50.7812V28.5156C81.25 27.894 81.0031 27.2979 80.5635 26.8583C80.124 26.4188 79.5279 26.1719 78.9062 26.1719H69.5312C68.9096 26.1719 68.3135 26.4188 67.874 26.8583C67.4344 27.2979 67.1875 27.894 67.1875 28.5156V50.7812H50.8234L49.9609 47.2656H60.1562C60.7779 47.2656 61.374 47.0187 61.8135 46.5792C62.2531 46.1396 62.5 45.5435 62.5 44.9219V28.75C62.5 28.1284 62.2531 27.5323 61.8135 27.0927C61.374 26.6532 60.7779 26.4063 60.1562 26.4063H32.0312C31.4096 26.4063 30.8135 26.6532 30.374 27.0927C29.9344 27.5323 29.6875 28.1284 29.6875 28.75V44.9219C29.6875 45.5435 29.9344 46.1396 30.374 46.5792C30.8135 47.0187 31.4096 47.2656 32.0312 47.2656H42.2266L41.3688 50.7812H29.6875C28.7551 50.7812 27.8609 51.1516 27.2016 51.811C26.5423 52.4703 26.1719 53.3645 26.1719 54.2969C26.1719 55.2293 26.5423 56.1235 27.2016 56.7828C27.8609 57.4421 28.7551 57.8125 29.6875 57.8125V83.5938C29.6875 83.9046 29.811 84.2026 30.0307 84.4224C30.2505 84.6422 30.5486 84.7656 30.8594 84.7656C31.1702 84.7656 31.4682 84.6422 31.688 84.4224C31.9078 84.2026 32.0312 83.9046 32.0312 83.5938V69.5312H63.6719V78.9062C63.6719 79.2171 63.7953 79.5151 64.0151 79.7349C64.2349 79.9547 64.5329 80.0781 64.8438 80.0781H78.9062V83.5938C78.9062 83.9046 79.0297 84.2026 79.2495 84.4224C79.4693 84.6422 79.7673 84.7656 80.0781 84.7656C80.3889 84.7656 80.687 84.6422 80.9068 84.4224C81.1265 84.2026 81.25 83.9046 81.25 83.5938V57.8125C82.1824 57.8125 83.0766 57.4421 83.7359 56.7828C84.3952 56.1235 84.7656 55.2293 84.7656 54.2969C84.7656 53.3645 84.3952 52.4703 83.7359 51.811C83.0766 51.1516 82.1824 50.7812 81.25 50.7812ZM69.5312 28.5156H78.9062V32.0312H69.5312V28.5156ZM69.5312 34.375H78.9062V50.7812H69.5312V34.375ZM32.0312 44.9219V28.75H60.1562V44.9219H32.0312ZM48.4105 50.7812H43.777L44.6336 47.2656H47.5539L48.4105 50.7812ZM63.6719 67.1875H32.0312V57.8125H63.6719V67.1875ZM78.9062 77.7344H66.0156V57.8125H78.9062V77.7344ZM81.25 55.4688H29.6875C29.3767 55.4688 29.0786 55.3453 28.8589 55.1255C28.6391 54.9057 28.5156 54.6077 28.5156 54.2969C28.5156 53.9861 28.6391 53.688 28.8589 53.4682C29.0786 53.2485 29.3767 53.125 29.6875 53.125H81.25C81.5608 53.125 81.8589 53.2485 82.0786 53.4682C82.2984 53.688 82.4219 53.9861 82.4219 54.2969C82.4219 54.6077 82.2984 54.9057 82.0786 55.1255C81.8589 55.3453 81.5608 55.4688 81.25 55.4688Z" fill="url(#paint0_linear)"/>
<path d="M74.2188 42.5781C73.5234 42.5781 72.8437 42.7843 72.2656 43.1706C71.6874 43.5569 71.2368 44.106 70.9707 44.7484C70.7046 45.3908 70.635 46.0977 70.7707 46.7796C70.9063 47.4616 71.2412 48.088 71.7328 48.5797C72.2245 49.0713 72.8509 49.4062 73.5329 49.5418C74.2149 49.6775 74.9217 49.6079 75.5641 49.3418C76.2065 49.0757 76.7556 48.6251 77.1419 48.0469C77.5282 47.4688 77.7344 46.7891 77.7344 46.0937C77.7344 45.1613 77.364 44.2671 76.7047 43.6078C76.0454 42.9485 75.1512 42.5781 74.2188 42.5781ZM74.2188 47.2656C73.987 47.2656 73.7604 47.1969 73.5677 47.0681C73.375 46.9394 73.2248 46.7563 73.1361 46.5422C73.0474 46.3281 73.0242 46.0924 73.0694 45.8651C73.1146 45.6378 73.2262 45.429 73.3901 45.2651C73.554 45.1012 73.7628 44.9896 73.9901 44.9444C74.2175 44.8992 74.4531 44.9224 74.6672 45.0111C74.8813 45.0998 75.0644 45.25 75.1931 45.4427C75.3219 45.6354 75.3906 45.862 75.3906 46.0937C75.3906 46.4045 75.2672 46.7026 75.0474 46.9224C74.8276 47.1422 74.5296 47.2656 74.2188 47.2656Z" fill="url(#paint1_linear)"/>
<defs>
<linearGradient id="paint0_linear" x1="55.4688" y1="26.1719" x2="55.4688" y2="84.7656" gradientUnits="userSpaceOnUse">
<stop stop-color="#070B20"/>
<stop offset="1" stop-color="#58595F"/>
</linearGradient>
<linearGradient id="paint1_linear" x1="74.2188" y1="42.5781" x2="74.2188" y2="49.6094" gradientUnits="userSpaceOnUse">
<stop stop-color="#070B20"/>
<stop offset="1" stop-color="#58595F"/>
</linearGradient>
</defs>
</svg>
