<svg width="124" height="124" viewBox="0 0 124 124" fill="none" xmlns="http://www.w3.org/2000/svg">
<circle cx="62" cy="62" r="61.5" stroke="#B7B7B7"/>
<path d="M80.6641 84.7656C83.2529 84.7656 85.3516 82.667 85.3516 80.0781C85.3516 77.4893 83.2529 75.3906 80.6641 75.3906C78.0752 75.3906 75.9766 77.4893 75.9766 80.0781C75.9766 82.667 78.0752 84.7656 80.6641 84.7656Z" fill="#DFDFDF"/>
<path d="M94.7266 40.2344H66.6016C65.6692 40.2344 64.7749 40.6048 64.1156 41.2641C63.4563 41.9234 63.0859 42.8176 63.0859 43.75V95.3125C63.0859 96.2449 63.4563 97.1391 64.1156 97.7984C64.7749 98.4577 65.6692 98.8281 66.6016 98.8281H94.7266C95.659 98.8281 96.5532 98.4577 97.2125 97.7984C97.8718 97.1391 98.2422 96.2449 98.2422 95.3125V43.75C98.2422 42.8176 97.8718 41.9234 97.2125 41.2641C96.5532 40.6048 95.659 40.2344 94.7266 40.2344ZM87.6953 44.9219C87.9271 44.9219 88.1537 44.9906 88.3464 45.1194C88.5391 45.2481 88.6893 45.4312 88.778 45.6453C88.8667 45.8594 88.8899 46.0951 88.8447 46.3224C88.7995 46.5497 88.6878 46.7585 88.524 46.9224C88.3601 47.0863 88.1513 47.1979 87.9239 47.2431C87.6966 47.2883 87.461 47.2651 87.2469 47.1764C87.0327 47.0877 86.8497 46.9375 86.7209 46.7448C86.5922 46.5521 86.5234 46.3255 86.5234 46.0938C86.5234 45.7829 86.6469 45.4849 86.8667 45.2651C87.0864 45.0453 87.3845 44.9219 87.6953 44.9219ZM78.966 61.4992L83.2152 51.3883C83.2651 51.272 83.3375 51.1667 83.4281 51.0785C83.5188 50.9902 83.626 50.9207 83.7436 50.874C83.8612 50.8273 83.9869 50.8043 84.1134 50.8063C84.2399 50.8082 84.3648 50.8352 84.4809 50.8855C84.7083 50.9848 84.887 51.1702 84.978 51.4011C85.0689 51.632 85.0646 51.8895 84.966 52.1172L80.718 62.2445C80.6169 62.4708 80.4325 62.6495 80.2031 62.7433C79.9738 62.8372 79.717 62.839 79.4863 62.7484C79.3685 62.7027 79.2611 62.6337 79.1706 62.5454C79.0801 62.4571 79.0084 62.3515 78.9598 62.2348C78.9112 62.1181 78.8867 61.9928 78.8877 61.8664C78.8888 61.74 78.9154 61.6151 78.966 61.4992ZM68.1027 56.0359L72.9766 51.0941C73.1868 50.8933 73.4663 50.7812 73.757 50.7812C74.0478 50.7812 74.3273 50.8933 74.5375 51.0941C74.6405 51.1962 74.7223 51.3177 74.7781 51.4516C74.8338 51.5854 74.8626 51.729 74.8626 51.874C74.8626 52.019 74.8338 52.1626 74.7781 52.2965C74.7223 52.4303 74.6405 52.5518 74.5375 52.6539L70.4266 56.8L74.5375 60.9438C74.6406 61.046 74.7224 61.1677 74.7782 61.3018C74.834 61.4358 74.8628 61.5796 74.8628 61.7248C74.8628 61.87 74.834 62.0138 74.7782 62.1478C74.7224 62.2819 74.6406 62.4036 74.5375 62.5059C74.3272 62.7065 74.0477 62.8184 73.757 62.8184C73.4664 62.8184 73.1869 62.7065 72.9766 62.5059L68.1027 57.5629C67.7066 57.4281 67.757 56.268 68.1027 56.0359ZM90.0391 80.0781C90.0386 80.5127 90.0068 80.9466 89.9441 81.3766L91.5555 82.307C92.0938 82.6178 92.4866 83.1298 92.6474 83.7302C92.8083 84.3306 92.7241 84.9703 92.4133 85.5086L91.2414 87.5383C90.9306 88.0766 90.4187 88.4694 89.8183 88.6302C89.2179 88.7911 88.5782 88.7069 88.0398 88.3961L86.4262 87.4586C85.7408 87.9936 84.9848 88.4313 84.1797 88.7594V90.625C84.1797 91.2466 83.9328 91.8427 83.4932 92.2823C83.0537 92.7218 82.4575 92.9688 81.8359 92.9688H79.4922C78.8706 92.9688 78.2744 92.7218 77.8349 92.2823C77.3954 91.8427 77.1484 91.2466 77.1484 90.625V88.7652C76.3434 88.4369 75.5875 87.9992 74.902 87.4645L73.2883 88.402C72.75 88.7127 72.1103 88.797 71.5098 88.6361C70.9094 88.4752 70.3975 88.0824 70.0867 87.5441L68.9148 85.5145C68.761 85.2478 68.6612 84.9535 68.6211 84.6483C68.581 84.3432 68.6014 84.0331 68.6812 83.7358C68.761 83.4385 68.8985 83.1598 69.086 82.9156C69.2735 82.6715 69.5072 82.4667 69.7738 82.3129L71.384 81.3824C71.2574 80.5214 71.2574 79.6465 71.384 78.7855L69.7727 77.8516C69.2344 77.5407 68.8416 77.0288 68.6807 76.4284C68.5198 75.828 68.6041 75.1883 68.9148 74.65L70.0867 72.6203C70.3975 72.082 70.9094 71.6892 71.5098 71.5284C72.1103 71.3675 72.75 71.4517 73.2883 71.7625L74.902 72.7C75.5873 72.165 76.3433 71.7273 77.1484 71.3992V69.5312C77.1484 68.9096 77.3954 68.3135 77.8349 67.874C78.2744 67.4344 78.8706 67.1875 79.4922 67.1875H81.8359C82.4575 67.1875 83.0537 67.4344 83.4932 67.874C83.9328 68.3135 84.1797 68.9096 84.1797 69.5312V71.391C84.9848 71.7191 85.7408 72.1568 86.4262 72.6918L88.0398 71.7543C88.5782 71.4435 89.2179 71.3593 89.8183 71.5202C90.4187 71.681 90.9306 72.0738 91.2414 72.6121L92.4133 74.6418C92.7241 75.1801 92.8083 75.8198 92.6474 76.4202C92.4866 77.0206 92.0938 77.5325 91.5555 77.8434L89.9441 78.7738C90.0071 79.2057 90.0388 79.6416 90.0391 80.0781ZM93.2254 57.5629L88.3527 62.5059C88.1419 62.706 87.8624 62.8176 87.5717 62.8176C87.281 62.8176 87.0014 62.706 86.7906 62.5059C86.6876 62.4036 86.6057 62.2819 86.5499 62.1478C86.4941 62.0138 86.4654 61.87 86.4654 61.7248C86.4654 61.5796 86.4941 61.4358 86.5499 61.3018C86.6057 61.1677 86.6876 61.046 86.7906 60.9438L90.9016 56.8L86.7906 52.6562C86.6876 52.5542 86.6059 52.4327 86.5501 52.2988C86.4943 52.165 86.4656 52.0214 86.4656 51.8764C86.4656 51.7313 86.4943 51.5878 86.5501 51.4539C86.6059 51.3201 86.6876 51.1986 86.7906 51.0965C87.001 50.8955 87.2808 50.7834 87.5717 50.7834C87.8626 50.7834 88.1423 50.8955 88.3527 51.0965L93.2254 56.0383C93.4245 56.2421 93.5359 56.5157 93.5359 56.8006C93.5359 57.0855 93.4245 57.3591 93.2254 57.5629ZM92.3828 47.2656C92.151 47.2656 91.9245 47.1969 91.7318 47.0681C91.539 46.9394 91.3888 46.7563 91.3001 46.5422C91.2114 46.3281 91.1882 46.0924 91.2335 45.8651C91.2787 45.6378 91.3903 45.429 91.5542 45.2651C91.7181 45.1012 91.9269 44.9896 92.1542 44.9444C92.3815 44.8992 92.6171 44.9224 92.8313 45.0111C93.0454 45.0998 93.2284 45.25 93.3572 45.4427C93.486 45.6354 93.5547 45.862 93.5547 46.0938C93.5547 46.4046 93.4312 46.7026 93.2115 46.9224C92.9917 47.1422 92.6936 47.2656 92.3828 47.2656Z" fill="#DFDFDF"/>
<path d="M81.8359 26.1719H30.2734C29.341 26.1719 28.4468 26.5423 27.7875 27.2016C27.1282 27.8609 26.7578 28.7551 26.7578 29.6875V61.3281C26.7578 62.2605 27.1282 63.1547 27.7875 63.814C28.4468 64.4734 29.341 64.8438 30.2734 64.8438H44.3359V73.0469H39.6484C39.3376 73.0469 39.0396 73.1703 38.8198 73.3901C38.6 73.6099 38.4766 73.9079 38.4766 74.2188C38.4766 74.5296 38.6 74.8276 38.8198 75.0474C39.0396 75.2672 39.3376 75.3906 39.6484 75.3906H72.4609C72.7717 75.3906 73.0698 75.2672 73.2896 75.0474C73.5093 74.8276 73.6328 74.5296 73.6328 74.2188C73.6328 73.9079 73.5093 73.6099 73.2896 73.3901C73.0698 73.1703 72.7717 73.0469 72.4609 73.0469H67.7734V64.8438H81.8359C82.7683 64.8438 83.6626 64.4734 84.3219 63.814C84.9812 63.1547 85.3516 62.2605 85.3516 61.3281V29.6875C85.3516 28.7551 84.9812 27.8609 84.3219 27.2016C83.6626 26.5423 82.7683 26.1719 81.8359 26.1719ZM65.4297 73.0469H46.6797V64.8438H50.3125C50.5815 66.1683 51.3001 67.3591 52.3466 68.2145C53.3931 69.0699 54.7031 69.5371 56.0547 69.5371C57.4063 69.5371 58.7163 69.0699 59.7628 68.2145C60.8093 67.3591 61.5279 66.1683 61.7969 64.8438H65.4297V73.0469ZM52.7547 64.8438H59.3547C59.116 65.5288 58.6701 66.1225 58.0788 66.5427C57.4875 66.9629 56.7801 67.1886 56.0547 67.1886C55.3293 67.1886 54.6219 66.9629 54.0306 66.5427C53.4392 66.1225 52.9933 65.5288 52.7547 64.8438ZM83.0078 61.3281C83.0078 61.6389 82.8843 61.937 82.6646 62.1568C82.4448 62.3765 82.1467 62.5 81.8359 62.5H30.2734C29.9626 62.5 29.6646 62.3765 29.4448 62.1568C29.225 61.937 29.1016 61.6389 29.1016 61.3281V29.6875C29.1016 29.3767 29.225 29.0786 29.4448 28.8589C29.6646 28.6391 29.9626 28.5156 30.2734 28.5156H81.8359C82.1467 28.5156 82.4448 28.6391 82.6646 28.8589C82.8843 29.0786 83.0078 29.3767 83.0078 29.6875V61.3281Z" fill="url(#paint0_linear)"/>
<path d="M44.964 43.1641C45.0669 43.3422 45.2148 43.4901 45.393 43.593C45.5711 43.6958 45.7732 43.75 45.9789 43.75H52.0726C52.2783 43.75 52.4804 43.6958 52.6585 43.593C52.8367 43.4901 52.9846 43.3422 53.0875 43.1641L56.1343 37.8906C56.2372 37.7125 56.2913 37.5104 56.2913 37.3047C56.2913 37.099 56.2372 36.8969 56.1343 36.7188L53.0875 31.4453C52.9844 31.2668 52.8361 31.1187 52.6575 31.0158C52.4789 30.9129 52.2764 30.859 52.0703 30.8594H45.9765C45.7708 30.8594 45.5688 30.9135 45.3906 31.0164C45.2125 31.1192 45.0645 31.2672 44.9617 31.4453L41.9148 36.7188C41.812 36.8969 41.7578 37.099 41.7578 37.3047C41.7578 37.5104 41.812 37.7125 41.9148 37.8906L44.964 43.1641ZM46.655 33.2031H51.3918L53.7601 37.3047L51.3918 41.4063H46.655L44.2867 37.3047L46.655 33.2031Z" fill="url(#paint1_linear)"/>
<path d="M67.1454 39.6484C67.0428 39.4706 66.8952 39.3229 66.7175 39.2201C66.5398 39.1173 66.3382 39.0629 66.1329 39.0625H60.0392C59.8335 39.0625 59.6314 39.1167 59.4532 39.2195C59.2751 39.3224 59.1272 39.4703 59.0243 39.6484L55.9774 44.9219C55.8746 45.1 55.8204 45.3021 55.8204 45.5078C55.8204 45.7135 55.8746 45.9156 55.9774 46.0938L59.0243 51.3672C59.1272 51.5453 59.2751 51.6933 59.4532 51.7961C59.6314 51.899 59.8335 51.9531 60.0392 51.9531H66.1329C66.3386 51.9531 66.5407 51.899 66.7188 51.7961C66.897 51.6933 67.0449 51.5453 67.1477 51.3672L70.1946 46.0938C70.2975 45.9156 70.3516 45.7135 70.3516 45.5078C70.3516 45.3021 70.2975 45.1 70.1946 44.9219L67.1454 39.6484ZM65.4544 49.6094H60.7177L58.3493 45.5078L60.7177 41.4062H65.4544L67.8227 45.5078L65.4544 49.6094Z" fill="url(#paint2_linear)"/>
<path d="M53.0828 47.8516C52.9801 47.6738 52.8326 47.5261 52.6549 47.4232C52.4772 47.3204 52.2756 47.266 52.0703 47.2656H45.9765C45.7708 47.2656 45.5688 47.3198 45.3906 47.4226C45.2125 47.5255 45.0645 47.6734 44.9617 47.8516L41.9148 53.125C41.812 53.3031 41.7578 53.5052 41.7578 53.7109C41.7578 53.9166 41.812 54.1187 41.9148 54.2969L44.9617 59.5703C45.0645 59.7485 45.2125 59.8964 45.3906 59.9992C45.5688 60.1021 45.7708 60.1562 45.9765 60.1562H52.0703C52.276 60.1562 52.4781 60.1021 52.6562 59.9992C52.8343 59.8964 52.9823 59.7485 53.0851 59.5703L56.132 54.2969C56.2349 54.1187 56.289 53.9166 56.289 53.7109C56.289 53.5052 56.2349 53.3031 56.132 53.125L53.0828 47.8516ZM51.3918 57.8125H46.6551L44.2867 53.7109L46.6551 49.6094H51.3918L53.7601 53.7109L51.3918 57.8125Z" fill="url(#paint3_linear)"/>
<defs>
<linearGradient id="paint0_linear" x1="56.0547" y1="26.1719" x2="56.0547" y2="75.3906" gradientUnits="userSpaceOnUse">
<stop stop-color="#070B20"/>
<stop offset="1" stop-color="#58595F"/>
</linearGradient>
<linearGradient id="paint1_linear" x1="49.0246" y1="30.8594" x2="49.0246" y2="43.75" gradientUnits="userSpaceOnUse">
<stop stop-color="#070B20"/>
<stop offset="1" stop-color="#58595F"/>
</linearGradient>
<linearGradient id="paint2_linear" x1="63.086" y1="39.0625" x2="63.086" y2="51.9531" gradientUnits="userSpaceOnUse">
<stop stop-color="#070B20"/>
<stop offset="1" stop-color="#58595F"/>
</linearGradient>
<linearGradient id="paint3_linear" x1="49.0234" y1="47.2656" x2="49.0234" y2="60.1562" gradientUnits="userSpaceOnUse">
<stop stop-color="#070B20"/>
<stop offset="1" stop-color="#58595F"/>
</linearGradient>
</defs>
</svg>
