<svg width="124" height="124" viewBox="0 0 124 124" fill="none" xmlns="http://www.w3.org/2000/svg">
<circle cx="62" cy="62" r="61.5" stroke="#B7B7B7"/>
<path d="M62.5 40.2344C58.0963 40.2344 53.7915 41.5402 50.1299 43.9868C46.4683 46.4334 43.6145 49.9108 41.9293 53.9793C40.244 58.0478 39.8031 62.5247 40.6622 66.8438C41.5213 71.1629 43.6419 75.1303 46.7558 78.2442C49.8697 81.3581 53.8371 83.4787 58.1562 84.3378C62.4753 85.1969 66.9522 84.756 71.0207 83.0708C75.0892 81.3855 78.5666 78.5317 81.0132 74.8701C83.4598 71.2086 84.7656 66.9037 84.7656 62.5C84.7588 56.5969 82.4108 50.9375 78.2366 46.7634C74.0625 42.5892 68.4031 40.2412 62.5 40.2344ZM56.2434 57.7129C56.3284 58.8173 56.0055 59.9145 55.3357 60.7968C54.666 61.679 53.696 62.285 52.6094 62.5C54.9531 63.2676 56.2422 64.5625 56.2422 67.2871C56.2422 68.0207 56.1707 69.1727 56.1707 69.8723C56.1707 72.2477 56.6594 73.3281 60.0484 74.3781C60.4068 74.5191 60.6977 74.7916 60.8616 75.14C61.0256 75.4884 61.0502 75.8863 60.9304 76.2523C60.8106 76.6182 60.5555 76.9245 60.2173 77.1086C59.879 77.2926 59.4833 77.3404 59.1109 77.2422C53.6945 76.0527 52.2625 73.8883 52.2625 70.4641C52.2625 69.9402 52.3328 68.5445 52.3328 67.9492C52.3328 65.4016 51.4246 64.2461 49.0516 64.1781C48.8222 64.193 48.5923 64.1606 48.3759 64.0831C48.1595 64.0055 47.9614 63.8844 47.7937 63.7273C47.626 63.5701 47.4924 63.3802 47.401 63.1693C47.3096 62.9584 47.2625 62.731 47.2625 62.5012C47.2625 62.2713 47.3096 62.0439 47.401 61.8331C47.4924 61.6222 47.626 61.4323 47.7937 61.2751C47.9614 61.1179 48.1595 60.9968 48.3759 60.9193C48.5923 60.8417 48.8222 60.8094 49.0516 60.8242C51.4258 60.7188 52.3328 59.6008 52.3328 57.0156C52.3328 56.4215 52.2625 55.0234 52.2625 54.502C52.2625 51.1141 53.6945 48.9461 59.1109 47.7602C59.4833 47.662 59.879 47.7098 60.2173 47.8938C60.5555 48.0778 60.8106 48.3841 60.9304 48.7501C61.0502 49.116 61.0256 49.5139 60.8616 49.8623C60.6977 50.2107 60.4068 50.4833 60.0484 50.6242C56.6594 51.6719 56.1707 52.7547 56.1707 55.1301C56.1719 55.8273 56.2434 56.9793 56.2434 57.7129ZM75.9871 64.1758C73.6117 64.2437 72.6684 65.3992 72.6684 67.9469C72.6684 68.5422 72.7387 69.9391 72.7387 70.4617C72.7387 73.8859 71.3066 76.0504 65.8926 77.2398C65.5176 77.3438 65.1169 77.2983 64.7748 77.1129C64.4327 76.9276 64.1757 76.6168 64.058 76.2459C63.9402 75.8751 63.9708 75.473 64.1434 75.1242C64.3159 74.7755 64.617 74.5072 64.9832 74.3758C68.3371 73.3211 68.8258 72.2453 68.8258 69.8699C68.8258 69.1668 68.7566 68.0184 68.7566 67.2848C68.6724 66.1812 68.9954 65.0849 69.6645 64.2033C70.3337 63.3216 71.3027 62.7157 72.3883 62.5C70.0445 61.7313 68.7555 60.441 68.7555 57.7152C68.7555 56.9816 68.8246 55.8297 68.8246 55.1301C68.8246 52.7547 68.3359 51.6719 64.982 50.6242C64.6019 50.5027 64.2857 50.2352 64.1028 49.8804C63.92 49.5257 63.8855 49.1129 64.007 48.7328C64.1286 48.3527 64.3961 48.0364 64.7508 47.8536C65.1055 47.6707 65.5183 47.6363 65.8984 47.7578C71.3125 48.9438 72.7445 51.1117 72.7445 54.4996C72.7445 55.0223 72.6742 56.4191 72.6742 57.0133C72.6742 59.5984 73.6117 60.7164 75.993 60.8219C76.2185 60.8134 76.4434 60.8506 76.6542 60.9311C76.865 61.0115 77.0574 61.1337 77.2199 61.2902C77.3824 61.4468 77.5117 61.6345 77.6 61.8422C77.6883 62.0498 77.7338 62.2732 77.7338 62.4988C77.7338 62.7245 77.6883 62.9478 77.6 63.1555C77.5117 63.3631 77.3824 63.5509 77.2199 63.7074C77.0574 63.864 76.865 63.9861 76.6542 64.0666C76.4434 64.1471 76.2185 64.1842 75.993 64.1758H75.9871Z" fill="#DFDFDF"/>
<path d="M86.0641 79.4348L82.8906 76.2614C81.1224 78.8725 78.8725 81.1224 76.2614 82.8906L79.4254 86.0547C82.0201 84.2673 84.2694 82.0244 86.0641 79.4348Z" fill="#DFDFDF"/>
<path d="M97.4535 90.8254L87.7386 81.1094C85.9124 83.6715 83.6729 85.9122 81.1117 87.7398L90.8254 97.4535C91.7094 98.3074 92.8935 98.7799 94.1226 98.7692C95.3516 98.7585 96.5273 98.2655 97.3964 97.3964C98.2655 96.5273 98.7585 95.3516 98.7692 94.1226C98.7798 92.8935 98.3074 91.7095 97.4535 90.8254Z" fill="#DFDFDF"/>
<path d="M81.25 26.1719H29.6875C28.7551 26.1719 27.8609 26.5423 27.2016 27.2016C26.5423 27.8609 26.1719 28.7551 26.1719 29.6875V81.25C26.1719 82.1824 26.5423 83.0766 27.2016 83.7359C27.8609 84.3952 28.7551 84.7656 29.6875 84.7656H81.25C82.1824 84.7656 83.0766 84.3952 83.7359 83.7359C84.3952 83.0766 84.7656 82.1824 84.7656 81.25V29.6875C84.7656 28.7551 84.3952 27.8609 83.7359 27.2016C83.0766 26.5423 82.1824 26.1719 81.25 26.1719ZM82.4219 81.25C82.4219 81.5608 82.2984 81.8589 82.0786 82.0786C81.8589 82.2984 81.5608 82.4219 81.25 82.4219H29.6875C29.3767 82.4219 29.0786 82.2984 28.8589 82.0786C28.6391 81.8589 28.5156 81.5608 28.5156 81.25V42.5781H82.4219V81.25ZM82.4219 40.2344H28.5156V29.6875C28.5156 29.3767 28.6391 29.0786 28.8589 28.8589C29.0786 28.6391 29.3767 28.5156 29.6875 28.5156H81.25C81.5608 28.5156 81.8589 28.6391 82.0786 28.8589C82.2984 29.0786 82.4219 29.3767 82.4219 29.6875V40.2344Z" fill="url(#paint0_linear)"/>
<path d="M36.7188 30.8594H32.0312C31.7204 30.8594 31.4224 30.9828 31.2026 31.2026C30.9828 31.4224 30.8594 31.7204 30.8594 32.0312V36.7188C30.8594 37.0296 30.9828 37.3276 31.2026 37.5474C31.4224 37.7672 31.7204 37.8906 32.0312 37.8906H36.7188C37.0296 37.8906 37.3276 37.7672 37.5474 37.5474C37.7672 37.3276 37.8906 37.0296 37.8906 36.7188V32.0312C37.8906 31.7204 37.7672 31.4224 37.5474 31.2026C37.3276 30.9828 37.0296 30.8594 36.7188 30.8594ZM35.5469 35.5469H33.2031V33.2031H35.5469V35.5469Z" fill="url(#paint1_linear)"/>
<path d="M46.0938 30.8594H41.4062C41.0954 30.8594 40.7974 30.9828 40.5776 31.2026C40.3578 31.4224 40.2344 31.7204 40.2344 32.0312V36.7188C40.2344 37.0296 40.3578 37.3276 40.5776 37.5474C40.7974 37.7672 41.0954 37.8906 41.4062 37.8906H46.0938C46.4046 37.8906 46.7026 37.7672 46.9224 37.5474C47.1422 37.3276 47.2656 37.0296 47.2656 36.7188V32.0312C47.2656 31.7204 47.1422 31.4224 46.9224 31.2026C46.7026 30.9828 46.4046 30.8594 46.0938 30.8594ZM44.9219 35.5469H42.5781V33.2031H44.9219V35.5469Z" fill="url(#paint2_linear)"/>
<path d="M55.4688 30.8594H50.7812C50.4704 30.8594 50.1724 30.9828 49.9526 31.2026C49.7328 31.4224 49.6094 31.7204 49.6094 32.0312V36.7188C49.6094 37.0296 49.7328 37.3276 49.9526 37.5474C50.1724 37.7672 50.4704 37.8906 50.7812 37.8906H55.4688C55.7796 37.8906 56.0776 37.7672 56.2974 37.5474C56.5172 37.3276 56.6406 37.0296 56.6406 36.7188V32.0312C56.6406 31.7204 56.5172 31.4224 56.2974 31.2026C56.0776 30.9828 55.7796 30.8594 55.4688 30.8594ZM54.2969 35.5469H51.9531V33.2031H54.2969V35.5469Z" fill="url(#paint3_linear)"/>
<path d="M34.375 56.6406C35.0222 56.6406 35.5469 56.116 35.5469 55.4688C35.5469 54.8215 35.0222 54.2969 34.375 54.2969C33.7278 54.2969 33.2031 54.8215 33.2031 55.4688C33.2031 56.116 33.7278 56.6406 34.375 56.6406Z" fill="url(#paint4_linear)"/>
<path d="M39.0625 56.6406C39.7097 56.6406 40.2344 56.116 40.2344 55.4688C40.2344 54.8215 39.7097 54.2969 39.0625 54.2969C38.4153 54.2969 37.8906 54.8215 37.8906 55.4688C37.8906 56.116 38.4153 56.6406 39.0625 56.6406Z" fill="url(#paint5_linear)"/>
<path d="M43.75 56.6406C44.3972 56.6406 44.9219 56.116 44.9219 55.4688C44.9219 54.8215 44.3972 54.2969 43.75 54.2969C43.1028 54.2969 42.5781 54.8215 42.5781 55.4688C42.5781 56.116 43.1028 56.6406 43.75 56.6406Z" fill="url(#paint6_linear)"/>
<path d="M48.4375 56.6406C49.0847 56.6406 49.6094 56.116 49.6094 55.4688C49.6094 54.8215 49.0847 54.2969 48.4375 54.2969C47.7903 54.2969 47.2656 54.8215 47.2656 55.4688C47.2656 56.116 47.7903 56.6406 48.4375 56.6406Z" fill="url(#paint7_linear)"/>
<path d="M53.125 56.6406C53.7722 56.6406 54.2969 56.116 54.2969 55.4688C54.2969 54.8215 53.7722 54.2969 53.125 54.2969C52.4778 54.2969 51.9531 54.8215 51.9531 55.4688C51.9531 56.116 52.4778 56.6406 53.125 56.6406Z" fill="url(#paint8_linear)"/>
<path d="M57.8125 56.6406C58.4597 56.6406 58.9844 56.116 58.9844 55.4688C58.9844 54.8215 58.4597 54.2969 57.8125 54.2969C57.1653 54.2969 56.6406 54.8215 56.6406 55.4688C56.6406 56.116 57.1653 56.6406 57.8125 56.6406Z" fill="url(#paint9_linear)"/>
<path d="M34.375 63.6719C35.0222 63.6719 35.5469 63.1472 35.5469 62.5C35.5469 61.8528 35.0222 61.3281 34.375 61.3281C33.7278 61.3281 33.2031 61.8528 33.2031 62.5C33.2031 63.1472 33.7278 63.6719 34.375 63.6719Z" fill="url(#paint10_linear)"/>
<path d="M43.75 61.3281H39.0625C38.7517 61.3281 38.4536 61.4516 38.2339 61.6714C38.0141 61.8911 37.8906 62.1892 37.8906 62.5C37.8906 62.8108 38.0141 63.1089 38.2339 63.3286C38.4536 63.5484 38.7517 63.6719 39.0625 63.6719H43.75C44.0608 63.6719 44.3589 63.5484 44.5786 63.3286C44.7984 63.1089 44.9219 62.8108 44.9219 62.5C44.9219 62.1892 44.7984 61.8911 44.5786 61.6714C44.3589 61.4516 44.0608 61.3281 43.75 61.3281Z" fill="url(#paint11_linear)"/>
<path d="M48.4375 63.6719C49.0847 63.6719 49.6094 63.1472 49.6094 62.5C49.6094 61.8528 49.0847 61.3281 48.4375 61.3281C47.7903 61.3281 47.2656 61.8528 47.2656 62.5C47.2656 63.1472 47.7903 63.6719 48.4375 63.6719Z" fill="url(#paint12_linear)"/>
<path d="M57.8125 61.3281H53.125C52.8142 61.3281 52.5161 61.4516 52.2964 61.6714C52.0766 61.8911 51.9531 62.1892 51.9531 62.5C51.9531 62.8108 52.0766 63.1089 52.2964 63.3286C52.5161 63.5484 52.8142 63.6719 53.125 63.6719H57.8125C58.1233 63.6719 58.4214 63.5484 58.6411 63.3286C58.8609 63.1089 58.9844 62.8108 58.9844 62.5C58.9844 62.1892 58.8609 61.8911 58.6411 61.6714C58.4214 61.4516 58.1233 61.3281 57.8125 61.3281Z" fill="url(#paint13_linear)"/>
<path d="M62.5 63.6719C63.1472 63.6719 63.6719 63.1472 63.6719 62.5C63.6719 61.8528 63.1472 61.3281 62.5 61.3281C61.8528 61.3281 61.3281 61.8528 61.3281 62.5C61.3281 63.1472 61.8528 63.6719 62.5 63.6719Z" fill="url(#paint14_linear)"/>
<path d="M67.1875 63.6719C67.8347 63.6719 68.3594 63.1472 68.3594 62.5C68.3594 61.8528 67.8347 61.3281 67.1875 61.3281C66.5403 61.3281 66.0156 61.8528 66.0156 62.5C66.0156 63.1472 66.5403 63.6719 67.1875 63.6719Z" fill="url(#paint15_linear)"/>
<path d="M34.375 49.6094C35.0222 49.6094 35.5469 49.0847 35.5469 48.4375C35.5469 47.7903 35.0222 47.2656 34.375 47.2656C33.7278 47.2656 33.2031 47.7903 33.2031 48.4375C33.2031 49.0847 33.7278 49.6094 34.375 49.6094Z" fill="url(#paint16_linear)"/>
<path d="M53.125 49.6094H57.8125C58.1233 49.6094 58.4214 49.4859 58.6411 49.2661C58.8609 49.0464 58.9844 48.7483 58.9844 48.4375C58.9844 48.1267 58.8609 47.8286 58.6411 47.6089C58.4214 47.3891 58.1233 47.2656 57.8125 47.2656H53.125C52.8142 47.2656 52.5161 47.3891 52.2964 47.6089C52.0766 47.8286 51.9531 48.1267 51.9531 48.4375C51.9531 48.7483 52.0766 49.0464 52.2964 49.2661C52.5161 49.4859 52.8142 49.6094 53.125 49.6094Z" fill="url(#paint17_linear)"/>
<path d="M48.4375 49.6094C49.0847 49.6094 49.6094 49.0847 49.6094 48.4375C49.6094 47.7903 49.0847 47.2656 48.4375 47.2656C47.7903 47.2656 47.2656 47.7903 47.2656 48.4375C47.2656 49.0847 47.7903 49.6094 48.4375 49.6094Z" fill="url(#paint18_linear)"/>
<path d="M62.5 49.6094C63.1472 49.6094 63.6719 49.0847 63.6719 48.4375C63.6719 47.7903 63.1472 47.2656 62.5 47.2656C61.8528 47.2656 61.3281 47.7903 61.3281 48.4375C61.3281 49.0847 61.8528 49.6094 62.5 49.6094Z" fill="url(#paint19_linear)"/>
<path d="M67.1875 49.6094C67.8347 49.6094 68.3594 49.0847 68.3594 48.4375C68.3594 47.7903 67.8347 47.2656 67.1875 47.2656C66.5403 47.2656 66.0156 47.7903 66.0156 48.4375C66.0156 49.0847 66.5403 49.6094 67.1875 49.6094Z" fill="url(#paint20_linear)"/>
<path d="M71.875 49.6094C72.5222 49.6094 73.0469 49.0847 73.0469 48.4375C73.0469 47.7903 72.5222 47.2656 71.875 47.2656C71.2278 47.2656 70.7031 47.7903 70.7031 48.4375C70.7031 49.0847 71.2278 49.6094 71.875 49.6094Z" fill="url(#paint21_linear)"/>
<path d="M76.5625 49.6094C77.2097 49.6094 77.7344 49.0847 77.7344 48.4375C77.7344 47.7903 77.2097 47.2656 76.5625 47.2656C75.9153 47.2656 75.3906 47.7903 75.3906 48.4375C75.3906 49.0847 75.9153 49.6094 76.5625 49.6094Z" fill="url(#paint22_linear)"/>
<path d="M39.0625 49.6094H43.75C44.0608 49.6094 44.3589 49.4859 44.5786 49.2661C44.7984 49.0464 44.9219 48.7483 44.9219 48.4375C44.9219 48.1267 44.7984 47.8286 44.5786 47.6089C44.3589 47.3891 44.0608 47.2656 43.75 47.2656H39.0625C38.7517 47.2656 38.4536 47.3891 38.2339 47.6089C38.0141 47.8286 37.8906 48.1267 37.8906 48.4375C37.8906 48.7483 38.0141 49.0464 38.2339 49.2661C38.4536 49.4859 38.7517 49.6094 39.0625 49.6094Z" fill="url(#paint23_linear)"/>
<path d="M57.8125 77.7344H53.125C52.8142 77.7344 52.5161 77.6109 52.2964 77.3911C52.0766 77.1714 51.9531 76.8733 51.9531 76.5625C51.9531 76.2517 52.0766 75.9536 52.2964 75.7339C52.5161 75.5141 52.8142 75.3906 53.125 75.3906H57.8125C58.1233 75.3906 58.4214 75.5141 58.6411 75.7339C58.8609 75.9536 58.9844 76.2517 58.9844 76.5625C58.9844 76.8733 58.8609 77.1714 58.6411 77.3911C58.4214 77.6109 58.1233 77.7344 57.8125 77.7344Z" fill="url(#paint24_linear)"/>
<path d="M62.5 77.7344C63.1472 77.7344 63.6719 77.2097 63.6719 76.5625C63.6719 75.9153 63.1472 75.3906 62.5 75.3906C61.8528 75.3906 61.3281 75.9153 61.3281 76.5625C61.3281 77.2097 61.8528 77.7344 62.5 77.7344Z" fill="url(#paint25_linear)"/>
<path d="M48.4375 77.7344C49.0847 77.7344 49.6094 77.2097 49.6094 76.5625C49.6094 75.9153 49.0847 75.3906 48.4375 75.3906C47.7903 75.3906 47.2656 75.9153 47.2656 76.5625C47.2656 77.2097 47.7903 77.7344 48.4375 77.7344Z" fill="url(#paint26_linear)"/>
<path d="M43.75 77.7344C44.3972 77.7344 44.9219 77.2097 44.9219 76.5625C44.9219 75.9153 44.3972 75.3906 43.75 75.3906C43.1028 75.3906 42.5781 75.9153 42.5781 76.5625C42.5781 77.2097 43.1028 77.7344 43.75 77.7344Z" fill="url(#paint27_linear)"/>
<path d="M39.0625 77.7344C39.7097 77.7344 40.2344 77.2097 40.2344 76.5625C40.2344 75.9153 39.7097 75.3906 39.0625 75.3906C38.4153 75.3906 37.8906 75.9153 37.8906 76.5625C37.8906 77.2097 38.4153 77.7344 39.0625 77.7344Z" fill="url(#paint28_linear)"/>
<path d="M34.375 77.7344C35.0222 77.7344 35.5469 77.2097 35.5469 76.5625C35.5469 75.9153 35.0222 75.3906 34.375 75.3906C33.7278 75.3906 33.2031 75.9153 33.2031 76.5625C33.2031 77.2097 33.7278 77.7344 34.375 77.7344Z" fill="url(#paint29_linear)"/>
<path d="M57.8125 68.3594H53.125C52.8142 68.3594 52.5161 68.4828 52.2964 68.7026C52.0766 68.9224 51.9531 69.2204 51.9531 69.5312C51.9531 69.8421 52.0766 70.1401 52.2964 70.3599C52.5161 70.5797 52.8142 70.7031 53.125 70.7031H57.8125C58.1233 70.7031 58.4214 70.5797 58.6411 70.3599C58.8609 70.1401 58.9844 69.8421 58.9844 69.5312C58.9844 69.2204 58.8609 68.9224 58.6411 68.7026C58.4214 68.4828 58.1233 68.3594 57.8125 68.3594Z" fill="url(#paint30_linear)"/>
<path d="M34.375 70.7031H39.0625C39.3733 70.7031 39.6714 70.5797 39.8911 70.3599C40.1109 70.1401 40.2344 69.8421 40.2344 69.5312C40.2344 69.2204 40.1109 68.9224 39.8911 68.7026C39.6714 68.4828 39.3733 68.3594 39.0625 68.3594H34.375C34.0642 68.3594 33.7661 68.4828 33.5464 68.7026C33.3266 68.9224 33.2031 69.2204 33.2031 69.5312C33.2031 69.8421 33.3266 70.1401 33.5464 70.3599C33.7661 70.5797 34.0642 70.7031 34.375 70.7031Z" fill="url(#paint31_linear)"/>
<path d="M48.4375 68.3594H43.75C43.4392 68.3594 43.1411 68.4828 42.9214 68.7026C42.7016 68.9224 42.5781 69.2204 42.5781 69.5312C42.5781 69.8421 42.7016 70.1401 42.9214 70.3599C43.1411 70.5797 43.4392 70.7031 43.75 70.7031H48.4375C48.7483 70.7031 49.0464 70.5797 49.2661 70.3599C49.4859 70.1401 49.6094 69.8421 49.6094 69.5312C49.6094 69.2204 49.4859 68.9224 49.2661 68.7026C49.0464 68.4828 48.7483 68.3594 48.4375 68.3594Z" fill="url(#paint32_linear)"/>
<defs>
<linearGradient id="paint0_linear" x1="55.4688" y1="26.1719" x2="55.4688" y2="84.7656" gradientUnits="userSpaceOnUse">
<stop stop-color="#070B20"/>
<stop offset="1" stop-color="#58595F"/>
</linearGradient>
<linearGradient id="paint1_linear" x1="34.375" y1="30.8594" x2="34.375" y2="37.8906" gradientUnits="userSpaceOnUse">
<stop stop-color="#070B20"/>
<stop offset="1" stop-color="#58595F"/>
</linearGradient>
<linearGradient id="paint2_linear" x1="43.75" y1="30.8594" x2="43.75" y2="37.8906" gradientUnits="userSpaceOnUse">
<stop stop-color="#070B20"/>
<stop offset="1" stop-color="#58595F"/>
</linearGradient>
<linearGradient id="paint3_linear" x1="53.125" y1="30.8594" x2="53.125" y2="37.8906" gradientUnits="userSpaceOnUse">
<stop stop-color="#070B20"/>
<stop offset="1" stop-color="#58595F"/>
</linearGradient>
<linearGradient id="paint4_linear" x1="34.375" y1="54.2969" x2="34.375" y2="56.6406" gradientUnits="userSpaceOnUse">
<stop stop-color="#070B20"/>
<stop offset="1" stop-color="#58595F"/>
</linearGradient>
<linearGradient id="paint5_linear" x1="39.0625" y1="54.2969" x2="39.0625" y2="56.6406" gradientUnits="userSpaceOnUse">
<stop stop-color="#070B20"/>
<stop offset="1" stop-color="#58595F"/>
</linearGradient>
<linearGradient id="paint6_linear" x1="43.75" y1="54.2969" x2="43.75" y2="56.6406" gradientUnits="userSpaceOnUse">
<stop stop-color="#070B20"/>
<stop offset="1" stop-color="#58595F"/>
</linearGradient>
<linearGradient id="paint7_linear" x1="48.4375" y1="54.2969" x2="48.4375" y2="56.6406" gradientUnits="userSpaceOnUse">
<stop stop-color="#070B20"/>
<stop offset="1" stop-color="#58595F"/>
</linearGradient>
<linearGradient id="paint8_linear" x1="53.125" y1="54.2969" x2="53.125" y2="56.6406" gradientUnits="userSpaceOnUse">
<stop stop-color="#070B20"/>
<stop offset="1" stop-color="#58595F"/>
</linearGradient>
<linearGradient id="paint9_linear" x1="57.8125" y1="54.2969" x2="57.8125" y2="56.6406" gradientUnits="userSpaceOnUse">
<stop stop-color="#070B20"/>
<stop offset="1" stop-color="#58595F"/>
</linearGradient>
<linearGradient id="paint10_linear" x1="34.375" y1="61.3281" x2="34.375" y2="63.6719" gradientUnits="userSpaceOnUse">
<stop stop-color="#070B20"/>
<stop offset="1" stop-color="#58595F"/>
</linearGradient>
<linearGradient id="paint11_linear" x1="41.4062" y1="61.3281" x2="41.4062" y2="63.6719" gradientUnits="userSpaceOnUse">
<stop stop-color="#070B20"/>
<stop offset="1" stop-color="#58595F"/>
</linearGradient>
<linearGradient id="paint12_linear" x1="48.4375" y1="61.3281" x2="48.4375" y2="63.6719" gradientUnits="userSpaceOnUse">
<stop stop-color="#070B20"/>
<stop offset="1" stop-color="#58595F"/>
</linearGradient>
<linearGradient id="paint13_linear" x1="55.4688" y1="61.3281" x2="55.4688" y2="63.6719" gradientUnits="userSpaceOnUse">
<stop stop-color="#070B20"/>
<stop offset="1" stop-color="#58595F"/>
</linearGradient>
<linearGradient id="paint14_linear" x1="62.5" y1="61.3281" x2="62.5" y2="63.6719" gradientUnits="userSpaceOnUse">
<stop stop-color="#070B20"/>
<stop offset="1" stop-color="#58595F"/>
</linearGradient>
<linearGradient id="paint15_linear" x1="67.1875" y1="61.3281" x2="67.1875" y2="63.6719" gradientUnits="userSpaceOnUse">
<stop stop-color="#070B20"/>
<stop offset="1" stop-color="#58595F"/>
</linearGradient>
<linearGradient id="paint16_linear" x1="34.375" y1="47.2656" x2="34.375" y2="49.6094" gradientUnits="userSpaceOnUse">
<stop stop-color="#070B20"/>
<stop offset="1" stop-color="#58595F"/>
</linearGradient>
<linearGradient id="paint17_linear" x1="55.4688" y1="47.2656" x2="55.4688" y2="49.6094" gradientUnits="userSpaceOnUse">
<stop stop-color="#070B20"/>
<stop offset="1" stop-color="#58595F"/>
</linearGradient>
<linearGradient id="paint18_linear" x1="48.4375" y1="47.2656" x2="48.4375" y2="49.6094" gradientUnits="userSpaceOnUse">
<stop stop-color="#070B20"/>
<stop offset="1" stop-color="#58595F"/>
</linearGradient>
<linearGradient id="paint19_linear" x1="62.5" y1="47.2656" x2="62.5" y2="49.6094" gradientUnits="userSpaceOnUse">
<stop stop-color="#070B20"/>
<stop offset="1" stop-color="#58595F"/>
</linearGradient>
<linearGradient id="paint20_linear" x1="67.1875" y1="47.2656" x2="67.1875" y2="49.6094" gradientUnits="userSpaceOnUse">
<stop stop-color="#070B20"/>
<stop offset="1" stop-color="#58595F"/>
</linearGradient>
<linearGradient id="paint21_linear" x1="71.875" y1="47.2656" x2="71.875" y2="49.6094" gradientUnits="userSpaceOnUse">
<stop stop-color="#070B20"/>
<stop offset="1" stop-color="#58595F"/>
</linearGradient>
<linearGradient id="paint22_linear" x1="76.5625" y1="47.2656" x2="76.5625" y2="49.6094" gradientUnits="userSpaceOnUse">
<stop stop-color="#070B20"/>
<stop offset="1" stop-color="#58595F"/>
</linearGradient>
<linearGradient id="paint23_linear" x1="41.4062" y1="47.2656" x2="41.4062" y2="49.6094" gradientUnits="userSpaceOnUse">
<stop stop-color="#070B20"/>
<stop offset="1" stop-color="#58595F"/>
</linearGradient>
<linearGradient id="paint24_linear" x1="55.4688" y1="75.3906" x2="55.4688" y2="77.7344" gradientUnits="userSpaceOnUse">
<stop stop-color="#070B20"/>
<stop offset="1" stop-color="#58595F"/>
</linearGradient>
<linearGradient id="paint25_linear" x1="62.5" y1="75.3906" x2="62.5" y2="77.7344" gradientUnits="userSpaceOnUse">
<stop stop-color="#070B20"/>
<stop offset="1" stop-color="#58595F"/>
</linearGradient>
<linearGradient id="paint26_linear" x1="48.4375" y1="75.3906" x2="48.4375" y2="77.7344" gradientUnits="userSpaceOnUse">
<stop stop-color="#070B20"/>
<stop offset="1" stop-color="#58595F"/>
</linearGradient>
<linearGradient id="paint27_linear" x1="43.75" y1="75.3906" x2="43.75" y2="77.7344" gradientUnits="userSpaceOnUse">
<stop stop-color="#070B20"/>
<stop offset="1" stop-color="#58595F"/>
</linearGradient>
<linearGradient id="paint28_linear" x1="39.0625" y1="75.3906" x2="39.0625" y2="77.7344" gradientUnits="userSpaceOnUse">
<stop stop-color="#070B20"/>
<stop offset="1" stop-color="#58595F"/>
</linearGradient>
<linearGradient id="paint29_linear" x1="34.375" y1="75.3906" x2="34.375" y2="77.7344" gradientUnits="userSpaceOnUse">
<stop stop-color="#070B20"/>
<stop offset="1" stop-color="#58595F"/>
</linearGradient>
<linearGradient id="paint30_linear" x1="55.4688" y1="68.3594" x2="55.4688" y2="70.7031" gradientUnits="userSpaceOnUse">
<stop stop-color="#070B20"/>
<stop offset="1" stop-color="#58595F"/>
</linearGradient>
<linearGradient id="paint31_linear" x1="36.7188" y1="68.3594" x2="36.7188" y2="70.7031" gradientUnits="userSpaceOnUse">
<stop stop-color="#070B20"/>
<stop offset="1" stop-color="#58595F"/>
</linearGradient>
<linearGradient id="paint32_linear" x1="46.0938" y1="68.3594" x2="46.0938" y2="70.7031" gradientUnits="userSpaceOnUse">
<stop stop-color="#070B20"/>
<stop offset="1" stop-color="#58595F"/>
</linearGradient>
</defs>
</svg>
